<svg xmlns="http://www.w3.org/2000/svg" viewBox="0 0 512 512">
  <rect width="512" height="512" fill="#1f7a4d" />
  <g transform="translate(76 76)">
    <rect width="360" height="360" rx="14" fill="#16261d" />
    <g fill="#fffdf7">
      <rect x="6" y="6" width="84" height="84" rx="4" /><rect x="96" y="6" width="84" height="84" rx="4" /><rect x="186" y="6" width="84" height="84" rx="4" />
      <rect x="186" y="96" width="84" height="84" rx="4" />
      <rect x="6" y="186" width="84" height="84" rx="4" /><rect x="96" y="186" width="84" height="84" rx="4" /><rect x="186" y="186" width="84" height="84" rx="4" /><rect x="276" y="186" width="84" height="84" rx="4" />
      <rect x="186" y="276" width="84" height="84" rx="4" />
    </g>
    <rect x="186" y="186" width="84" height="84" rx="4" fill="#ffe08a" />
    <g font-family="Helvetica, Arial, sans-serif" font-weight="800" fill="#1d1b16" text-anchor="middle">
      <text x="48" y="72" font-size="52">W</text><text x="138" y="72" font-size="52">O</text><text x="228" y="72" font-size="52">R</text>
      <text x="228" y="162" font-size="52">D</text>
      <text x="228" y="252" font-size="52">S</text>
    </g>
    <g font-family="Helvetica, Arial, sans-serif" font-weight="700" fill="#6b665c" font-size="20">
      <text x="14" y="206">7</text><text x="104" y="206">12</text><text x="194" y="206">3</text><text x="284" y="206">19</text><text x="194" y="296">3</text>
    </g>
  </g>
</svg>
