<svg xmlns="http://www.w3.org/2000/svg" viewBox="0 0 512 512">
  <rect width="512" height="512" fill="#f4f1ea" />
  <g stroke="rgba(0,0,0,.18)" stroke-width="0">
    <rect x="56" y="56" width="120" height="120" rx="34" fill="#2f7de0" />
    <rect x="196" y="56" width="120" height="120" rx="34" fill="#f2c230" />
    <rect x="336" y="56" width="120" height="120" rx="34" fill="#2f7de0" />
    <rect x="56" y="196" width="120" height="120" rx="34" fill="#e5483b" />
    <rect x="196" y="196" width="120" height="120" rx="34" fill="#e5483b" />
    <rect x="336" y="196" width="120" height="120" rx="34" fill="#2fb36a" />
    <rect x="56" y="336" width="120" height="120" rx="34" fill="#2fb36a" />
    <rect x="196" y="336" width="120" height="120" rx="34" fill="#e5483b" />
    <rect x="336" y="336" width="120" height="120" rx="34" fill="#f2c230" />
  </g>
  <g fill="#fff" opacity=".35">
    <rect x="72" y="212" width="88" height="18" rx="9" /><rect x="212" y="212" width="88" height="18" rx="9" /><rect x="212" y="352" width="88" height="18" rx="9" />
  </g>
</svg>
